<?xml version="1.0" encoding="utf-8"?>

<svg version="1.1" id="Layer_1" xmlns="http://www.w3.org/2000/svg" xmlns:xlink="http://www.w3.org/1999/xlink" x="0px" y="0px"
	 viewBox="0 0 500 200" style="enable-background:new 0 0 500 200;" xml:space="preserve">
<style type="text/css">
	.st0{fill:#231F20;}
	<!-- .st0{fill:#FFFFFF;} -->
	<!-- .st1{clip-path:url(#SVGID_2_);fill:#FFCD14;} -->
	.st1{clip-path:url(#SVGID_2_);fill:#FFFFFF;}
	.st1:hover{
		stroke-dasharray:10;
		<!-- fill:#000000; -->
	}
</style>
<g>
	<g>
		<path class="st0" d="M99,48.7c-2.6,0-4.9,1.3-4.9,3.7c0,2.9,3.5,3.7,6.4,4.7c5.3,1.8,11.6,4.3,11.6,12.1c0,8.1-7.6,11.6-14.2,11.6
			c-5.8,0-10.3-2.2-14.3-6.3l5.1-5c3,2.9,5.4,4.7,9.3,4.7c3,0,5.9-1.4,5.9-4.8c0-3.2-3.4-4.4-7.2-5.8c-4.9-1.8-10.3-4-10.3-11.1
			c0-7.1,6-10.5,12.2-10.5c4.8,0,8.6,1.5,12.4,4.4l-4.4,5.4C104.6,50.3,101.9,48.7,99,48.7z"/>
		<path class="st0" d="M152.8,80.2V66c0-2.1-0.1-4.4-0.9-6c-0.7-1.4-2-2-3.7-2c-2,0-4.1,1.2-5.5,3.2c0.2,1.4,0.3,2.9,0.3,4.4v14.6
			h-7.6V66c0-2.1,0-4.5-0.9-6.1c-0.7-1.3-2-1.9-3.6-1.9c-1.9,0-4,1.2-5.4,2.8v19.4h-7.6V52.1h6.6l0.5,3.4c2.2-2.8,5.3-4.1,8.1-4.1
			c3.2,0,6.5,1.9,8,4.7c2.6-3.7,6.3-4.7,9.3-4.7c3,0,5.6,1.4,7.4,3.6c2.2,2.8,2.5,6.5,2.5,10.5v14.6H152.8z"/>
		<path class="st0" d="M167.5,48.2v-6.5h7.6v6.5H167.5z M167.5,80.2V52.1h7.6v28.1H167.5z"/>
		<path class="st0" d="M190.1,80.2h-7.6V40.2h7.6V80.2z"/>
		<path class="st0" d="M203.2,68c0.5,3.8,3,6.7,7.1,6.7c3.6,0,5.5-1.5,7.3-4.2l5,3.4c-3.2,4.6-6.8,6.9-12.8,6.9
			c-8.5,0-14.2-5.9-14.2-14.4c0-8.5,6.2-15,14.3-15c7.8,0,13.6,5.5,13.6,13c0,1.1-0.2,2.5-0.4,3.6H203.2z M215.6,62.9
			c-0.2-3.4-2.5-5.4-5.6-5.4c-3.6,0-5.6,2.3-6.4,5.4H215.6z"/>
		<path class="st0" d="M249.8,58.4v10.9c0,0.9,0,1.6,0.1,2.4c0.2,1.7,0.9,2.7,2.5,2.7c1.2,0,2.1-0.3,3-0.8l2.4,5.6
			c-1.8,1.1-4.5,1.7-6.7,1.7c-4.4,0-7.3-2.4-8.3-6c-0.4-1.4-0.5-3-0.5-4.7V58.4h-3.4v-6.3h3.4l1.2-6.2h6.4v6.2h7.2v6.3H249.8z"/>
		<path class="st0" d="M289.6,66.2c0,8.3-6.1,14.7-14.7,14.7c-8.6,0-14.7-6.4-14.7-14.7s6.1-14.7,14.7-14.7
			C283.4,51.5,289.6,57.9,289.6,66.2z M274.9,58c-4.2,0-7,3.6-7,8.2s2.8,8.2,7,8.2c4.2,0,6.9-3.6,6.9-8.2S279.1,58,274.9,58z"/>
		<path class="st0" d="M308.6,80.2V42.8h7.6v30.9h15.3v6.5H308.6z"/>
		<path class="st0" d="M335.5,48.2v-6.5h7.6v6.5H335.5z M335.5,80.2V52.1h7.6v28.1H335.5z"/>
		<path class="st0" d="M367.2,80.2l-6.5-10.4L358,73v7.3h-7.6V40.2h7.6v23.4h0.1l9.1-11.4h8.7l-10,11.8l10.7,16.3H367.2z"/>
		<path class="st0" d="M384.8,68c0.5,3.8,3,6.7,7.1,6.7c3.6,0,5.5-1.5,7.3-4.2l5,3.4c-3.2,4.6-6.8,6.9-12.8,6.9
			c-8.5,0-14.2-5.9-14.2-14.4c0-8.5,6.2-15,14.3-15c7.8,0,13.6,5.5,13.6,13c0,1.1-0.2,2.5-0.4,3.6H384.8z M397.2,62.9
			c-0.2-3.4-2.5-5.4-5.6-5.4c-3.6,0-5.6,2.3-6.4,5.4H397.2z"/>
	</g>
	<g>
		<defs>
			<rect id="SVGID_1_" x="60.1" y="17.5" width="419.9" height="155"/>
		</defs>
		<clipPath id="SVGID_2_">
			<use xlink:href="#SVGID_1_"  style="overflow:visible;"/>
		</clipPath>
		<path class="st1" d="M328.2,88.4H302c0,31.9-25.9,57.8-57.8,57.8s-57.8-25.9-57.8-57.8h-26.2c0,46.4,37.6,84.1,84.1,84.1
			S328.2,134.9,328.2,88.4"/>
	</g>
</g>
</svg>
